<mxfile host="app.diagrams.net" agent="Mozilla/5.0 (Windows NT 10.0; Win64; x64) AppleWebKit/537.36 (KHTML, like Gecko) Chrome/127.0.0.0 Safari/537.36" version="24.7.5">
  <diagram name="第 1 页" id="h8aLgfO00kIcLXcWK8Nq">
    <mxGraphModel dx="1434" dy="746" grid="1" gridSize="10" guides="1" tooltips="1" connect="1" arrows="1" fold="1" page="1" pageScale="1" pageWidth="827" pageHeight="1169" math="0" shadow="0">
      <root>
        <mxCell id="0" />
        <mxCell id="1" parent="0" />
        <mxCell id="QgC1mFvupAcKgu5-tBZl-14" style="edgeStyle=orthogonalEdgeStyle;rounded=0;orthogonalLoop=1;jettySize=auto;html=1;" edge="1" parent="1" source="QgC1mFvupAcKgu5-tBZl-1" target="QgC1mFvupAcKgu5-tBZl-3">
          <mxGeometry relative="1" as="geometry" />
        </mxCell>
        <mxCell id="QgC1mFvupAcKgu5-tBZl-22" style="edgeStyle=orthogonalEdgeStyle;rounded=0;orthogonalLoop=1;jettySize=auto;html=1;" edge="1" parent="1" source="QgC1mFvupAcKgu5-tBZl-1" target="QgC1mFvupAcKgu5-tBZl-6">
          <mxGeometry relative="1" as="geometry" />
        </mxCell>
        <mxCell id="QgC1mFvupAcKgu5-tBZl-1" value="开始" style="shape=hexagon;perimeter=hexagonPerimeter2;whiteSpace=wrap;html=1;fixedSize=1;" vertex="1" parent="1">
          <mxGeometry x="350" y="20" width="120" height="80" as="geometry" />
        </mxCell>
        <mxCell id="QgC1mFvupAcKgu5-tBZl-15" style="edgeStyle=orthogonalEdgeStyle;rounded=0;orthogonalLoop=1;jettySize=auto;html=1;" edge="1" parent="1" source="QgC1mFvupAcKgu5-tBZl-3" target="QgC1mFvupAcKgu5-tBZl-4">
          <mxGeometry relative="1" as="geometry" />
        </mxCell>
        <mxCell id="QgC1mFvupAcKgu5-tBZl-3" value="云招聘系统" style="rounded=0;whiteSpace=wrap;html=1;" vertex="1" parent="1">
          <mxGeometry x="350" y="140" width="120" height="60" as="geometry" />
        </mxCell>
        <mxCell id="QgC1mFvupAcKgu5-tBZl-12" style="edgeStyle=orthogonalEdgeStyle;rounded=0;orthogonalLoop=1;jettySize=auto;html=1;" edge="1" parent="1" source="QgC1mFvupAcKgu5-tBZl-4" target="QgC1mFvupAcKgu5-tBZl-5">
          <mxGeometry relative="1" as="geometry" />
        </mxCell>
        <mxCell id="QgC1mFvupAcKgu5-tBZl-4" value="调用财务系统&lt;div&gt;&lt;p class=&quot;MsoNormal&quot;&gt;&lt;u&gt;&lt;span style=&quot;font-family: 宋体; color: rgb(0, 0, 255);&quot; class=&quot;15&quot;&gt;&lt;font face=&quot;Times New Roman&quot;&gt;api&lt;/font&gt;&lt;/span&gt;&lt;/u&gt;&lt;u&gt;&lt;span style=&quot;font-family: &amp;quot;Times New Roman&amp;quot;; color: rgb(0, 0, 255);&quot; class=&quot;15&quot;&gt;/finaMeetingController/service&lt;/span&gt;&lt;/u&gt;&lt;/p&gt;&lt;/div&gt;" style="rounded=0;whiteSpace=wrap;html=1;" vertex="1" parent="1">
          <mxGeometry x="350" y="233" width="120" height="60" as="geometry" />
        </mxCell>
        <mxCell id="QgC1mFvupAcKgu5-tBZl-24" style="edgeStyle=orthogonalEdgeStyle;rounded=0;orthogonalLoop=1;jettySize=auto;html=1;" edge="1" parent="1" source="QgC1mFvupAcKgu5-tBZl-5" target="QgC1mFvupAcKgu5-tBZl-23">
          <mxGeometry relative="1" as="geometry" />
        </mxCell>
        <mxCell id="QgC1mFvupAcKgu5-tBZl-5" value="存储缴费数据" style="rounded=0;whiteSpace=wrap;html=1;" vertex="1" parent="1">
          <mxGeometry x="350" y="470" width="120" height="60" as="geometry" />
        </mxCell>
        <mxCell id="QgC1mFvupAcKgu5-tBZl-21" style="edgeStyle=orthogonalEdgeStyle;rounded=0;orthogonalLoop=1;jettySize=auto;html=1;" edge="1" parent="1" source="QgC1mFvupAcKgu5-tBZl-6" target="QgC1mFvupAcKgu5-tBZl-7">
          <mxGeometry relative="1" as="geometry" />
        </mxCell>
        <mxCell id="QgC1mFvupAcKgu5-tBZl-6" value="导入银行汇款登记表" style="rounded=0;whiteSpace=wrap;html=1;" vertex="1" parent="1">
          <mxGeometry x="570" y="300" width="120" height="60" as="geometry" />
        </mxCell>
        <mxCell id="QgC1mFvupAcKgu5-tBZl-13" style="edgeStyle=orthogonalEdgeStyle;rounded=0;orthogonalLoop=1;jettySize=auto;html=1;" edge="1" parent="1" source="QgC1mFvupAcKgu5-tBZl-7" target="QgC1mFvupAcKgu5-tBZl-5">
          <mxGeometry relative="1" as="geometry" />
        </mxCell>
        <mxCell id="QgC1mFvupAcKgu5-tBZl-7" value="是否匹配&lt;div&gt;&lt;div&gt;表：uf_meeting&lt;/div&gt;&lt;div&gt;字段：&lt;/div&gt;&lt;div&gt;REMITTANCE_UNIT&lt;/div&gt;&lt;div&gt;TRADE_AMOUNT&lt;/div&gt;&lt;/div&gt;&lt;div&gt;pipei_status=1&lt;br&gt;&lt;/div&gt;" style="rhombus;whiteSpace=wrap;html=1;align=center;" vertex="1" parent="1">
          <mxGeometry x="520" y="410" width="220" height="180" as="geometry" />
        </mxCell>
        <mxCell id="QgC1mFvupAcKgu5-tBZl-9" value="转入与确认缴费&lt;div&gt;pay_status =1&lt;br&gt;&lt;/div&gt;" style="rounded=0;whiteSpace=wrap;html=1;" vertex="1" parent="1">
          <mxGeometry x="713" y="690" width="120" height="60" as="geometry" />
        </mxCell>
        <mxCell id="QgC1mFvupAcKgu5-tBZl-10" style="edgeStyle=orthogonalEdgeStyle;rounded=0;orthogonalLoop=1;jettySize=auto;html=1;entryX=0.383;entryY=-0.067;entryDx=0;entryDy=0;entryPerimeter=0;" edge="1" parent="1" source="QgC1mFvupAcKgu5-tBZl-7" target="QgC1mFvupAcKgu5-tBZl-9">
          <mxGeometry relative="1" as="geometry">
            <Array as="points">
              <mxPoint x="760" y="510" />
              <mxPoint x="760" y="686" />
            </Array>
          </mxGeometry>
        </mxCell>
        <mxCell id="QgC1mFvupAcKgu5-tBZl-11" value="匹配" style="edgeLabel;html=1;align=center;verticalAlign=middle;resizable=0;points=[];" vertex="1" connectable="0" parent="QgC1mFvupAcKgu5-tBZl-10">
          <mxGeometry x="0.1301" y="1" relative="1" as="geometry">
            <mxPoint as="offset" />
          </mxGeometry>
        </mxCell>
        <mxCell id="QgC1mFvupAcKgu5-tBZl-20" style="edgeStyle=orthogonalEdgeStyle;rounded=0;orthogonalLoop=1;jettySize=auto;html=1;" edge="1" parent="1" source="QgC1mFvupAcKgu5-tBZl-16" target="QgC1mFvupAcKgu5-tBZl-18">
          <mxGeometry relative="1" as="geometry" />
        </mxCell>
        <mxCell id="QgC1mFvupAcKgu5-tBZl-16" value="开具发票和学历认证流程一直" style="rounded=0;whiteSpace=wrap;html=1;" vertex="1" parent="1">
          <mxGeometry x="540" y="696" width="120" height="60" as="geometry" />
        </mxCell>
        <mxCell id="QgC1mFvupAcKgu5-tBZl-18" value="结束" style="shape=hexagon;perimeter=hexagonPerimeter2;whiteSpace=wrap;html=1;fixedSize=1;" vertex="1" parent="1">
          <mxGeometry x="540" y="840" width="120" height="80" as="geometry" />
        </mxCell>
        <mxCell id="QgC1mFvupAcKgu5-tBZl-19" style="edgeStyle=orthogonalEdgeStyle;rounded=0;orthogonalLoop=1;jettySize=auto;html=1;entryX=0.983;entryY=0.4;entryDx=0;entryDy=0;entryPerimeter=0;" edge="1" parent="1" source="QgC1mFvupAcKgu5-tBZl-9" target="QgC1mFvupAcKgu5-tBZl-16">
          <mxGeometry relative="1" as="geometry" />
        </mxCell>
        <mxCell id="QgC1mFvupAcKgu5-tBZl-23" value="退回&lt;div&gt;pay_status=0&lt;br&gt;&lt;/div&gt;" style="rounded=0;whiteSpace=wrap;html=1;" vertex="1" parent="1">
          <mxGeometry x="350" y="690" width="120" height="60" as="geometry" />
        </mxCell>
        <mxCell id="QgC1mFvupAcKgu5-tBZl-25" style="edgeStyle=orthogonalEdgeStyle;rounded=0;orthogonalLoop=1;jettySize=auto;html=1;entryX=0;entryY=0.613;entryDx=0;entryDy=0;entryPerimeter=0;" edge="1" parent="1" source="QgC1mFvupAcKgu5-tBZl-23" target="QgC1mFvupAcKgu5-tBZl-18">
          <mxGeometry relative="1" as="geometry">
            <Array as="points">
              <mxPoint x="400" y="889" />
            </Array>
          </mxGeometry>
        </mxCell>
      </root>
    </mxGraphModel>
  </diagram>
</mxfile>
